<?xml version="1.0" encoding="UTF-8"?> <svg xmlns="http://www.w3.org/2000/svg" width="114" height="16" viewBox="0 0 114 16" fill="none"> <path d="M71.3166 0L69.1261 2.29175V2.29317L68.7227 2.71644H68.7202L67.0331 4.48141V4.92917H69.1261V8.50912C69.1261 10.9017 70.6597 12.4309 73.0414 12.4309H74.5029V10.0023H73.3842C72.3377 10.0023 71.7603 9.42659 71.7603 8.3652V4.92917H74.4848V2.71644H71.7603V0H71.3166Z" fill="#272727"></path> <path d="M62.4141 2.69845L62.8833 3.90376C63.5869 3.04026 64.471 2.66247 65.716 2.66247H66.3475V5.09108H65.4273C63.9478 5.09108 63.3704 5.73871 63.3704 7.33979V12.4129H60.7362V2.69845H62.4141Z" fill="#272727"></path> <path d="M26.355 12.7007C28.8269 12.7007 30.4508 11.4055 30.4508 9.42659C30.4508 7.09584 28.4866 6.74081 26.9126 6.45631L26.8241 6.4403C25.8137 6.26041 24.9838 6.0985 24.9838 5.45087C24.9838 4.89319 25.4709 4.5334 26.2829 4.5334C27.203 4.5334 27.7443 4.91118 27.7624 5.68474H30.2703C30.2523 3.74185 28.7006 2.42861 26.355 2.42861C24.0095 2.42861 22.4397 3.70587 22.4397 5.54082C22.4397 7.82551 24.4244 8.23927 25.9761 8.50912C27.0046 8.67102 27.8526 8.86891 27.8526 9.53453C27.8526 10.1822 27.185 10.524 26.4633 10.524C25.5251 10.524 24.8575 10.0922 24.8394 9.2287H22.2773C22.2773 11.2975 23.9192 12.7007 26.355 12.7007Z" fill="#272727"></path> <path d="M40.1061 4.02969C40.7737 3.09422 41.8743 2.48258 43.1193 2.48258C45.1401 2.48258 46.5474 4.04768 46.5474 6.33237V12.4129H43.9131V6.76412C43.9131 5.46886 43.4079 4.78525 42.4517 4.78525C41.2789 4.78525 40.5752 5.64876 40.5752 7.15989V12.4129H38.0131V6.76412C38.0131 5.46886 37.5079 4.78525 36.5697 4.78525C35.3789 4.78525 34.6752 5.64876 34.6752 7.15989V12.4129H32.0409V2.69845H33.8813L34.3685 3.90376C35.0541 3.04026 36.1186 2.48258 37.2734 2.48258C38.5183 2.48258 39.5287 3.05824 40.1061 4.02969Z" fill="#272727"></path> <path fill-rule="evenodd" clip-rule="evenodd" d="M56.2945 3.61592L56.5651 2.69845H58.5318V12.4129H56.4749L56.2404 11.5314C55.4104 12.269 54.3278 12.7007 53.0829 12.7007C50.1599 12.7007 47.9767 10.488 47.9767 7.55566C47.9767 4.62335 50.1599 2.42861 53.0829 2.42861C54.3459 2.42861 55.4465 2.87835 56.2945 3.61592ZM50.6471 7.55566C50.6471 9.06679 51.7657 10.2181 53.2994 10.2181C54.833 10.2181 55.9517 9.08478 55.9517 7.55566C55.9517 6.02654 54.833 4.89319 53.2994 4.89319C51.7657 4.89319 50.6471 6.02654 50.6471 7.55566Z" fill="#272727"></path> <path d="M88.0078 2.69845L86.0953 8.50912L83.461 2.77041H82.7212L80.1952 8.49113L78.2647 2.69845H75.5943L78.8059 12.4129H80.935L83.1001 7.39376L85.3014 12.4129H87.4304L90.606 2.69845H88.0078Z" fill="#272727"></path> <path fill-rule="evenodd" clip-rule="evenodd" d="M99.787 2.69845L99.5163 3.61592C98.6683 2.87835 97.5677 2.42861 96.3047 2.42861C93.3818 2.42861 91.1986 4.62335 91.1986 7.55566C91.1986 10.488 93.3818 12.7007 96.3047 12.7007C97.5497 12.7007 98.6322 12.269 99.4622 11.5314L99.6968 12.4129H101.754V2.69845H99.787ZM96.5212 10.2181C94.9876 10.2181 93.8689 9.06679 93.8689 7.55566C93.8689 6.02654 94.9876 4.89319 96.5212 4.89319C98.0549 4.89319 99.1735 6.02654 99.1735 7.55566C99.1735 9.08478 98.0549 10.2181 96.5212 10.2181Z" fill="#272727"></path> <path d="M111.035 2.69845L108.6 8.68901L106.001 2.69845H103.133L107.264 11.6753L107.228 11.7473C106.633 13.2224 106.308 13.5642 105.027 13.5642H104.125V15.9209H105.208C107.391 15.9209 108.419 14.9314 109.592 12.2869L113.832 2.69845H111.035Z" fill="#272727"></path> <path d="M0 1.03864H0.56162L2.78493 2.63464V10.0216C2.78493 11.1601 3.71325 12.083 4.85839 12.083C6.00353 12.083 6.93185 11.1601 6.93185 10.0216V5.9877C6.93185 3.30325 9.12067 1.12707 11.8207 1.12707C14.5208 1.12707 16.7096 3.30325 16.7096 5.9877V14.8829H16.1527L13.9247 13.2787V5.9877C13.9247 4.83244 12.9827 3.89592 11.8207 3.89592C10.6587 3.89592 9.71678 4.83244 9.71678 5.9877V10.0216C9.71678 12.6893 7.54161 14.8519 4.85839 14.8519C2.17518 14.8519 0 12.6893 0 10.0216V1.03864Z" fill="#D84B3B"></path> </svg> 